<svg width="100" height="100" viewBox="0 0 100 100" fill="none" xmlns="http://www.w3.org/2000/svg">
<path d="M56.3076 41.4957L65.6664 52.1932L78.252 60.235L80.4412 41.5632L78.252 23.3125L65.4253 30.377L56.3076 41.4957Z" fill="white"/>
<path d="M2 58.4969V74.4079C2 78.0409 4.94897 80.9906 8.58268 80.9906H24.4938L27.7885 68.9686L24.4938 58.4969L13.5776 55.2021L2 58.4969Z" fill="white"/>
<path d="M24.4938 2L2 24.4938L13.5784 27.7806L24.4938 24.4938L27.7285 14.1645L24.4938 2Z" fill="white"/>
<path d="M2 58.5043H24.4934V24.4937H2V58.5043Z" fill="white"/>
<path d="M92.6214 11.5239L78.252 23.3123V60.2343L92.6807 72.0685C94.8406 73.7604 98.0004 72.2185 98.0004 69.4727V14.0671C98.0004 11.291 94.7653 9.75653 92.621 11.5243" fill="white"/>
<path d="M56.3071 41.4951V58.4967H24.4932V80.9904H71.6691C75.3029 80.9904 78.2514 78.0407 78.2514 74.4078V60.2344L56.3071 41.4951Z" fill="white"/>
<path d="M71.6691 2H24.4932V24.4938H56.3071V41.4953L78.2518 23.3118V8.58305C78.2518 4.94934 75.3029 2.00037 71.6691 2.00037" fill="white"/>
</svg>
